<?xml version="1.0" ?><!DOCTYPE svg  PUBLIC '-//W3C//DTD SVG 1.1//EN'  'http://www.w3.org/Graphics/SVG/1.1/DTD/svg11.dtd'><svg enable-background="new 0 0 512 512" height="512px" id="Layer_1" version="1.1" viewBox="0 0 512 512" width="512px" xml:space="preserve" xmlns="http://www.w3.org/2000/svg" xmlns:xlink="http://www.w3.org/1999/xlink"><path d="M433.205,42.622c-17.889-9.862-67.199-34.145-99.368-40.817c-33.414-6.938-83.13,123.527-98.936,124.103  c-25.635,0.917-3.11-89.072,21.249-125.908C218.132,25.387,150.59,59.47,134.786,98.67c-30.553,75.756,56.622,212.086,10.11,219.926  c-14.498,2.442-54.663-94.019-65.085-123.449c-29.463,56.312-7.279,109.029,17.08,174.893v4.09  c-0.934,3.562-1.742,6.97-2.583,10.438h2.583v95.573c0,17.609,14.249,31.858,31.857,31.858s31.857-14.249,31.857-31.858v-95.573  v-1.012c59.454-6.688,87.423,12.803,128.147-64.416c-24.857,10.281-74.48-21.047-64.184-35.841  c20.689-29.773,105.281,1.681,159.197-89.834c-85.339,22.742-95.419-9.862-96.228-21.747c-1.711-24.608,85.308-11.573,124.975-45.78  C435.509,106.105,463.073,59.111,433.205,42.622z"/></svg>