<?xml version="1.0" ?><!DOCTYPE svg  PUBLIC '-//W3C//DTD SVG 1.1//EN'  'http://www.w3.org/Graphics/SVG/1.1/DTD/svg11.dtd'><svg height="21.273px" id="Capa_1" style="enable-background:new 0 0 40.826 21.273;" version="1.1" viewBox="0 0 40.826 21.273" width="40.826px" xml:space="preserve" xmlns="http://www.w3.org/2000/svg" xmlns:xlink="http://www.w3.org/1999/xlink"><g><polygon points="13.396,12.678 12.102,11.717 10.181,11.524 9.895,11.99 9.507,11.861 9.314,11.142    8.739,11.103 8.979,10.42 8.498,10.373 8.019,10.758 7.684,10.276 7.972,9.461 9.269,9.268 9.507,9.94 9.844,9.893 9.844,9.268    10.756,8.02 11.908,7.394 13.396,6.725 12.34,4.37 11.859,4.657 11.478,3.603 10.562,3.65 10.324,5.522 9.988,5.57 8.595,4.083    8.884,3.312 10.324,3.025 10.324,1.199 6.723,1.586 4.852,0.48 3.985,1.297 1.632,0 0.336,0.768 0.816,1.489 0.287,1.489    0.145,2.017 0.864,2.112 0.145,2.689 0.382,3.506 1.007,3.65 0,4.467 1.584,3.698 2.448,3.217 3.842,4.083 4.946,5.955    4.946,7.636 5.617,8.884 6.723,10.612 8.067,11.093 8.644,11.381 9.314,12.245 9.785,12.172 9.269,13.015 9.698,14.742    10.611,15.558 9.507,20.023 9.894,20.984 10.995,21.273 10.324,20.552 11.236,18.825 13.204,17.143 13.35,16.375 14.311,16.229    15.271,14.262 13.591,13.445  " style="fill:#231F20;"/><polygon points="36.335,13.016 36.231,13.832 35.541,13.58 35.668,13.14 34.912,13.078 33.932,13.989    32.894,14.367 33.146,15.779 33.051,16.062 33.43,16.281 34.972,15.9 35.569,16.247 35.853,16.09 36.041,16.661 36.826,16.882    37.395,16.535 37.71,14.839 36.859,13.989  " style="fill:#231F20;"/><polygon points="32.516,12.228 33.335,12.384 33.713,11.221 33.491,11.031 32.391,11.724  " style="fill:#231F20;"/><polygon points="37.269,13.077 36.985,12.479 35.694,11.851 35.033,11.913 35.883,12.794 36.37,12.827    36.575,12.637  " style="fill:#231F20;"/><polygon points="36.576,4.769 36.356,4.769 36.324,5.901 35.758,7.098 35.034,7.633 35.003,8.104    36.324,7.318 36.387,6.499 36.827,6.091 36.483,5.809 36.67,5.146  " style="fill:#231F20;"/><polygon points="39.975,16.193 40.069,17.073 39.095,17.986 39.724,18.05 40.288,17.199 40.73,16.603    40.447,16.571  " style="fill:#231F20;"/><polygon points="18.939,2.949 18.939,3.866 19.576,3.587 19.756,3.305 19.067,1.979 18.66,2.262    18.685,2.616 18.302,3.078 18.276,3.56 18.736,3.56  " style="fill:#231F20;"/><polygon points="24.696,13.746 24.67,14.767 25.08,14.944 25.487,13.721 25.385,13.212  " style="fill:#231F20;"/><path d="M25.208,7.072l0.125-0.484l-0.279-0.713l0.791-0.433v0.381l-0.308,0.128l0.257,0.382l0.124,0.789   L25.208,7.072L25.208,7.072z M24.289,6.639L23.73,6.486l-0.766,0.126l-0.178-0.329l0.408-0.713l1.324,0.688L24.289,6.639   L24.289,6.639z M39.692,2.881l1.134-0.63L40.511,1.37l-8.349-1.179c0,0-5.059,0.537-7.849,0.83l-2.418-0.444L20.927,1.11   l-0.383,0.943l-0.46,0.356L20.06,3.199l0.254,0.152l0.536-0.305l0.255,0.815l0.458-0.179l0.308-0.816l-0.308-0.33l0.281-0.61   l0.331-0.409l0.2,0.031l-0.188,0.479l-0.215,0.153l0.079,0.194l-0.015,0.032l0.026,0.003l0.188,0.457l0.536-0.151l0.184,0.217   l-0.592,0.191l0.129,0.483l-0.385-0.129l-0.279,0.715L20.85,4.167l-0.179-0.509l-0.229,0.306l0.077,0.331l-0.357,0.027   l-0.433,0.584l-0.79,0.256l0.205,0.433l0.329,0.534l-1.043-0.075l0.051,1.019L19.296,7.2l0.535-0.841l0.765-0.384l0.331,0.384   l0.457,0.612l0.334-0.384L21.08,6.155l-0.027-0.408L21.359,5.9l0.511,0.407l-0.026,0.407L22.227,7.2l0.178-0.612l0.204,0.103   l0.279,0.484l0.864,0.144L23.61,7.789l-0.324,0.195l-1.25-0.32l-0.315,0.439l-0.817-0.534l-0.127-0.533l-2.013,0.345l-1.039,1.258   l-0.19,1.7l1.072,1.039l1.92-0.126l0.566,1.762l-0.221,1.007l0.911,2.203l1.04-0.188l1.038-1.951l0.566-0.441l-0.156-1.352   l1.007-0.913l0.314-1.103l-1.007,0.473l-1.029-2.355l0.21-0.037l1.01,1.983l1.95-1.164l-0.663-0.503l-0.502,0.252l-0.315-0.756   l0.221-0.125l0.44,0.375l1.512,0.284l0.628,0.756l0.566,1.416l0.441-0.438V9.898l1.228-0.85l0.441,0.943l0.362-0.091l0.077,0.942   l0.377,0.69l-0.816-0.408l0.597,0.85l0.662,0.629l1.573,0.283l-0.85-0.345l-0.631-0.222l-0.22-1.007l-0.505-0.567l0.019-0.569   l0.58,0.602l0.566-0.473l-0.533-0.786l0.25-0.41l1.166-0.062l0.533-0.977l-0.376-1.069L34.026,6.5l0.347,0.472L34.5,7.569   l0.408-0.22l-0.156-0.661l0.347-0.503l0.566-0.095l0.659-1.826l-0.565-0.408L36.544,3.1l1.04,0.064l0.85-0.693l0.66-0.095   l-1.069,1.291L38.056,4.8l0.819-1.007l-0.031-0.725L39.692,2.881z" style="fill:#231F20;"/><polygon points="14.509,0.932 13.8,0.738 12.923,1.674 14.05,4.608 14.583,4.74 14.625,3.786 14.986,3.564    15.007,3.202 15.379,2.503 15.119,1.974  " style="fill:#231F20;"/></g><g/><g/><g/><g/><g/><g/><g/><g/><g/><g/><g/><g/><g/><g/><g/></svg>