<?xml version="1.0" ?><!DOCTYPE svg  PUBLIC '-//W3C//DTD SVG 1.1//EN'  'http://www.w3.org/Graphics/SVG/1.1/DTD/svg11.dtd'><svg enable-background="new 0 0 512 512" id="Layer_1" version="1.1" xml:space="preserve" width="15" xmlns="http://www.w3.org/2000/svg" xmlns:xlink="http://www.w3.org/1999/xlink"><path d="M255.843,112.036c0.062,79.524,64.464,143.988,143.986,143.988c42.685,0,80.649-18.936,108.615-62.745  c4.719,0.844,3.688,43.309,3.375,62.745c-2.281,141.363-114.615,255.978-255.978,255.978  c-141.363,0-255.979-114.615-255.979-255.978S114.479,1.921,255.843,0.046c16.874-0.219,34.653,0.312,63.433,1.719  C301.369,20.044,255.812,64.384,255.843,112.036z M191.848,160.032c0-34.591,11.218-66.401,29.873-92.555  C132.041,83.632,63.86,161.687,63.86,256.023c0,106.021,85.961,191.984,191.983,191.984c94.335,0,172.392-68.182,188.546-157.86  c-26.154,18.653-57.963,29.871-92.555,29.871C263.467,320.018,191.848,248.399,191.848,160.032z"/></svg>